<svg version="1.0" xmlns="http://www.w3.org/2000/svg" width="1229.333" height="970.667" viewBox="0 0 922 728"><path d="M773.4 197.1c-1.7 1.9-1.9 4.2-2.2 28l-.4 25.9h-16l.4 36.7.4 36.8 3.9 8c5.5 11.1 13.6 19 24.9 24.5 8.2 4 8.6 4.3 8 6.8-3.9 16-10.2 24.1-23 29.8-4.1 1.8-8.7 2.8-16 3.4-12.6 1.1-16.9 2.2-25.4 6.5-18 9.1-31.3 26.7-34.5 45.8-.3 2-1 14.9-1.4 28.6-.8 23.6-1 25.2-3.4 30.5-4.5 9.7-15.5 18.5-25.3 20.1-2.1.3-4.9.8-6.1 1.1l-2.3.4v-21.3c0-13.7-.4-22.6-1.2-24.8-1.8-5.3-5.3-9.3-11-12.5-4.8-2.6-6.4-2.9-16.5-3.2l-11.2-.4 2-4c3.2-6.2 5.9-18.4 5.9-26.7.1-6.3-1.6-14.4-10.1-48.6-5.5-22.6-11-44-12-47.6-4.7-16.4-20.5-32.4-38.5-39.2l-5.9-2.2-192.5-.3c-136.5-.2-194 .1-197.8.9-7.6 1.5-19.8 8-26.5 13.9-10.6 9.5-17.5 21.1-19.8 33.2-.7 3.5-5.7 23.7-11.1 45-5.4 21.2-9.8 40.6-9.8 43.1 0 8.5 2.7 19.5 7.5 30.9.6 1.6-.1 1.8-8.6 1.8-14.5.1-22.8 4.1-27.4 13.3l-2.5 5.1v62c0 58.2.2 62.4 1.9 66.2 2.2 4.9 9.2 11 14.3 12.6l3.8 1.1v26.6c0 16.3.4 28.1 1.1 30.6 1.8 6.3 6.2 11.8 12.1 15l5.3 3 28.8.3c33.8.4 36.8-.1 44-7.1 7.2-7.1 7.7-9.7 7.7-40.9V629h350.9l.3 28.2c.3 31.3.6 32.5 7.3 39.3 6.8 6.8 7.9 7 39.8 7.3 33.8.4 36.8-.1 44-7.1 7.2-7.1 7.7-9.6 7.7-41.4V628l3.8-1.5c4.9-2.1 10-7 12.3-12 1.7-3.6 1.9-6.8 1.9-30.1 0-20.7.3-26.4 1.3-27.3.8-.6 3.8-1.5 6.8-2.1 16.4-3.1 26.2-8 36.4-18.4 15.5-15.7 18.1-24.2 19.4-63.1.6-14.7 1.4-25.4 2.1-27.5 3.1-8.6 13.1-18 22-20.8 1.9-.6 9.7-2 17.2-3.1 19.8-2.9 29.3-7.4 40.6-19.5 9.7-10.4 15.7-23.2 16.9-36.1l.6-6.3 4-1.3c10.7-3.5 23.2-15.1 28.9-26.7l3.3-6.7.3-37.3.3-37.2h-14.9l-.4-25.3c-.4-30.3-.5-30.7-9.3-30.7s-8.5-.9-8.5 29.6V251h-33v-26c0-24.7-.1-26.1-2-28-2.9-2.9-11-2.8-13.6.1zM552.8 345c4.7 3.5 8.2 8.6 8.2 12.1 0 1.3 4.5 19.9 10 41.3l9.9 38.9-1.7 5.1-1.7 5.1-216.1.3-216.1.2-1.1-2.4c-2.9-6.3-2.5-8.4 7.2-46.7 5.2-20.5 9.8-39.3 10.1-41.7.8-4.7 4.9-10.2 10-13.4 2.9-1.7 10.6-1.8 190.1-1.8h187l4.2 3zM448.5 497.1c4.2 1.1 12.5 7 12.5 9 0 .5-39.8.9-100.5.9s-100.5-.4-100.5-.9c0-1.8 8.2-7.9 11.8-8.9 5.4-1.5 171-1.5 176.7-.1zm-257.2 2.3c5.6 2 10.7 6.4 12.8 11 1.5 3.3 1.9 6.6 1.9 16.5 0 14.8-1.6 19.4-8.3 24-7.5 5-8.2 5.1-52.2 5.1-44.7 0-46.1-.1-53.2-5.6-1.8-1.4-4.2-4.3-5.4-6.6-1.8-3.6-2-5.5-1.7-18.3.3-14.3.3-14.3 3.4-18.2 1.6-2.1 5.4-5 8.4-6.6l5.4-2.7h42.5c33 .1 43.4.4 46.4 1.4zm433.7 1.3c3 1.6 6.8 4.5 8.4 6.6 3.1 3.9 3.1 3.9 3.4 18.2.3 12.8.1 14.7-1.7 18.3-1.2 2.3-3.6 5.2-5.4 6.6-7.1 5.5-8.5 5.6-53.2 5.6-44 0-44.7-.1-52.2-5.1-6.7-4.6-8.3-9.2-8.3-24 0-14.4 1.5-18.9 7.4-23.4 7-5.3 7.7-5.4 53.7-5.5h42.5l5.4 2.7zm-156 54.8v5.5H252v-11h217v5.5z" fill="#fff"/></svg>