<svg version="1.0" xmlns="http://www.w3.org/2000/svg" width="800" height="546.667" viewBox="0 0 600 410"><g fill="#fff"><path d="M526.7 8c-1.1 1.6-1.5 6.5-1.6 22.3 0 11.1-.1 20.8-.1 21.4 0 .9-2 1.3-6.6 1.3h-6.5l.3 29.7.3 29.8 2.7 5.8c1.5 3.2 4.1 7.6 5.8 9.7 3.6 4.6 13.7 11.6 18.1 12.5 1.7.4 3.2 1.2 3.5 1.9 1 2.5-1.8 11.2-5.1 16.3-5.8 8.8-16.5 14.3-28 14.3-19.9 0-39.5 14.8-46.6 35.1-2 5.6-2.3 9.2-2.8 29.4-.6 21.2-.8 23.3-2.9 27.2-5 9.5-13.7 15.9-23.2 17l-5 .6v-25c0-29.8-.3-31.2-9.3-43.3-3.5-4.7-7.5-10.6-9-13-1.4-2.5-12.5-27.2-24.6-55-23.6-53.7-24.2-54.9-33.1-59.3l-4.5-2.2-131.4-.3C67 83.9 78.2 83.3 69.6 92.3c-4.5 4.8-6.6 9-26.1 53.7-24.6 56.6-23.9 55-32.1 66.1C.4 226.9 1 223.5 1 269c0 37.6.1 39.7 2.1 44 2.5 5.5 6.2 9.5 11.4 12.3l4 2.2 194 .3c141.4.2 195.1 0 198-.8 9.2-2.6 16.7-10.8 18.1-19.6.6-4.3.7-4.3 5.3-4.9 6.6-.9 16.6-4.1 22-7.2 6.8-4 15.5-13.3 19-20.5 4.8-9.7 6.1-17.8 6.1-38.5 0-21.1 1.2-26 8-33.1 6.2-6.4 12.4-9.1 23.8-10.2 11.1-1.1 15.8-2.3 22.3-5.5 14.9-7.6 25.5-22.7 27.6-39.6l.8-6.1 4.7-1.8c7.2-2.7 14.3-8.4 18.7-15.1 6.7-10 7.1-12.6 7.1-44.1V53h-13V31.7C581 7 580.7 6 573.6 6c-2.3 0-4.7.5-5.4 1.2-.9.9-1.2 7.5-1.2 23.5V53h-28V30.5c0-21.2-.1-22.5-1.9-23.5-3.4-1.8-8.8-1.2-10.4 1zM219 110h121.8l2.3 2.4c1.2 1.3 10.2 20.5 19.9 42.7l17.6 40.4-82.8.3c-45.5.1-120.1.1-165.8 0l-82.9-.3L67 154.6c9.9-22.5 18.6-41.6 19.3-42.4 1.7-1.6 7.5-3.2 9.5-2.6.8.2 56.2.4 123.2.4zM69.5 224.4c5.8 2.7 11.8 8.4 14.8 14.1 2.9 5.6 3.5 16.7 1.2 23.4-2.3 6.9-9.9 15.2-16.6 18-14.5 6.3-32.2-.1-39.7-14.3-2.3-4.4-2.7-6.3-2.7-13.6s.4-9.2 2.7-13.6c7.9-15 25.1-21 40.3-14zm314.7-.8c6.3 2.1 13.1 8.3 16.5 15.1 2.2 4.6 2.7 7.1 2.7 12.7.1 8.7-1.4 13.2-6.4 19.5-8.4 10.6-24.1 14.4-36.1 8.9-7.7-3.6-11.4-7.1-14.8-14.1-4-8.3-4.6-13.2-2.7-20.7 4.8-18.5 22.1-27.6 40.8-21.4zM26 367.8c0 33.2.2 34.3 7 38.9 3.1 2.2 4.2 2.3 23.4 2.3 22.4 0 24.5-.5 28.6-7.2 1.9-3.1 2-5.1 2-33.6V338H26v29.8zM343.2 369.5l.3 31.5 3.8 3.7 3.7 3.8 20.5.3c23.2.4 25.7-.2 29.7-6.7 2.3-3.5 2.3-4.2 2.3-33.6v-30l-30.3-.3-30.3-.2.3 31.5z"/></g></svg>