<svg xmlns="http://www.w3.org/2000/svg" viewBox="20 20 321 321">
<g fill="#000" stroke="none">
<path d="m 258.76623,115.65667 3.01556,5.22123 -32.44742,18.73955 23.0561,13.32016 -3.01555,5.22122 -23.06473,-13.32016 v 20.74706 20.73843 l 23.06473,-13.32016 3.01555,5.22984 -23.0561,13.31155 32.44742,18.73955 -3.01556,5.22122 -32.45604,-18.73093 v 29.13892 h -6.03112 v -29.13892 l -36.19533,20.89352 23.20258,13.3977 -3.01556,5.22123 -23.20258,-13.38909 v 39.2109 h -6.03112 v -39.2109 l -23.20258,13.38909 -3.01556,-5.22123 23.20258,-13.3977 -36.20395,-20.89352 v 29.13892 h -6.03112 v -29.13892 l -32.456043,18.73093 -3.01556,-5.22122 32.456043,-18.73955 -23.06473,-13.31155 3.01556,-5.22984 23.06473,13.32016 v -20.73843 -20.74706 l -23.06473,13.32016 -3.01556,-5.22122 23.06473,-13.32016 -32.456043,-18.73955 3.01556,-5.22123 32.456043,18.73955 V 105.2573 h 6.03112 v 29.13892 l 36.20395,-20.90214 -23.20258,-13.3977 3.01556,-5.221225 23.20258,13.397705 V 69.053346 h 6.03112 v 39.219514 l 23.20258,-13.397705 3.01556,5.221225 -23.20258,13.3977 36.19533,20.90214 V 105.2573 h 6.03112 v 29.13892 l 32.45604,-18.73955 m -80.71361,1.31823 -42.23507,24.38296 v 24.22787 24.21925 l 42.23507,24.38295 42.22645,-24.38295 v -24.21925 -24.22787z"/>
<path d="m 189.74263,286.65783 c 0,6.24652 -5.06614,11.31266 -11.31266,11.31266 -6.25513,0 -11.32127,-5.06614 -11.32127,-11.31266 0,-6.24652 5.06614,-11.31266 11.32127,-11.31266 6.24652,0 11.31266,5.06614 11.31266,11.31266z"/>
<path d="m 248.20572,264.40386 c 0,6.24652 -5.06614,11.31266 -11.31266,11.31266 -6.25513,0 -11.32127,-5.06614 -11.32127,-11.31266 0,-6.24652 5.06614,-11.31266 11.32127,-11.31266 6.24652,0 11.31266,5.06614 11.31266,11.31266z"/>
<path d="m 130.52565,262.10945 c 0,6.24652 -5.06614,11.31266 -11.31266,11.31266 -6.25513,0 -11.32127,-5.06614 -11.32127,-11.31266 0,-6.24652 5.06614,-11.31266 11.32127,-11.31266 6.24652,0 11.31266,5.06614 11.31266,11.31266z"/>
</g>
</svg>
