<svg xmlns="http://www.w3.org/2000/svg" viewBox="20 20 321 321">
<g stroke="none" stroke-width="0" fill="#000" fill-opacity='0.75' transform="matrix(8.5269171,0,0,-8.5269171,-344.26643,3938.8302)">
<path transform="translate(56.059200,431.96245)" d="m0,0c0.77547,0.027733,2.0501,0.4096,2.7819,0.13227,0.51413-0.19627,1.1264-0.2528,1.6608-0.112,0.98773,0.2592,1.792-0.13333,2.7435-0.16107,0.8544-0.023467,1.6416,0.056533,2.4757,0.2336,1.3051,0.27947,0.8791,1.7963-0.4086,1.5232-1.6672-0.3552-3.1466,0.5739-4.785,0.0405-0.5099-0.1674-1.0667,0.1387-1.5744,0.2272-0.8694,0.1494-1.872-0.2378-2.7392-0.2688-1.2096-0.0437-1.5542-1.6661-0.15467-1.6149"/>
<path transform="translate(54.699307,431.18635)" d="M0,0c1.3152-0.74347,2.6112-0.48853,3.9723-0.030933,0.1354,0.045866,0.9546,0.50133,0.5728,0.73813-0.6763,0.4192-0.8544,0.4341-1.664,0.4651-0.2784-0.34883-0.5568-0.69657-0.8352-1.0443,3.1616-0.052267,6.0021-0.0512,9.0871,0.62293-0.361,0.02027-0.72,0.03947-1.081,0.05974,1.649-1.0603,1.983-3.5702,3.902-4.4502,0.55253,0.30827,1.1072,0.61653,1.6597,0.9248-1.953,0.6763-4.304,0.3627-6.334,0.3392-3.4933-0.0384-7.0133,0.018133-10.506,0.0928,0.2031-0.1237,0.40467-0.2485,0.60733-0.3733,0.13013,0.29013,1.0475,1.7184,1.3365,1.7781-0.26347,0.16213-0.52693,0.3232-0.7904,0.4864-0.35947-0.6048-0.8064-1.0539-1.2608-1.5872-0.22613-0.2656,0.048-0.45973,0.30507-0.49387,1.6043-0.21653,11.743,0.9952,11.935,0,0.48213,0.2656,0.96427,0.53227,1.4485,0.79787-1.1851,0-4.1344-0.5472-5.1968,0.094933-0.5779,0.3478-2.3848-0.4895-1.924-0.769,1.6512-0.99733,4.4565-0.37013,6.2837-0.37013,0.35093,0,1.5563,0.2368,1.4485,0.79787-0.26453,1.3717-2.8373,0.7136-3.7632,0.71893-1.464,0.0074-2.9072-0.0278-4.3632-0.1622-0.9515-0.1109-1.9061-0.1866-2.8629-0.2261-1.7664-0.0832-0.5803,0.5067-0.1526,1.2277,0.2976,0.50027-0.4576,0.55467-0.7893,0.4864-1.5925-0.32746-3.0421-1.5893-3.7045-3.0762-0.1451-0.3232,0.4458-0.3702,0.6069-0.3734,2.3563-0.0512,4.7125-0.00427,7.0699-0.0672,2.6923-0.0704,6.3605,0.6496,8.9451-0.2464,0.50133-0.17387,2.4789,0.54933,1.6597,0.9248-1.6053,0.736-2.1557,3.3397-3.6373,4.2923-0.329,0.2123-0.723,0.1376-1.082,0.0597-2.7457-0.5994-5.2523-0.5098-8.0139-0.465-0.6848,0.0106-2.2294-0.99203-0.8352-1.0443,0.192-0.062933,0.384-0.12587,0.576-0.18987,0.19093,0.24747,0.38187,0.4928,0.5728,0.7392-0.512,0.08214-1.023,0.16427-1.535,0.24747-0.5173,0.2923-2.4309-0.48853-1.6597-0.9248"/>
<path transform="translate(55.105067,429.28736)" d="M0,0c2.0235-0.3744,4.1611-0.013867,6.208,0.0074667,1.7291,0.017066,3.3141-0.27627,4.965,0.38186,0.312,0.12374,0.843,0.58774,0.514,0.95677-0.997,1.12-1.453,1.4454-2.9979,1.471-2.191,0.0341-4.3328-0.1408-6.5174-0.2966-0.5674-0.0405-1.8357-1.0346-0.7253-1.3056,1.6544-0.4021,3.376-0.3189,5.0699-0.37437,1.5072-0.049067,3.1584-0.2816,4.6208,0.1536,0.4704,0.13973,1.4485,1.0517,0.4448,1.2544-0.07787,0.016-0.15467,0.032-0.23147,0.046933-0.78,0.1579-2.4443-1.0218-1.224-1.2682,0.078-0.016,0.156-0.03093,0.232-0.04693,0.15,0.41923,0.297,0.83623,0.445,1.2554-1.0664-0.3178-2.436-0.0746-3.5357-0.0448-1.5051,0.0406-3.1286-0.0661-4.5995,0.2923-0.2421-0.4352-0.4832-0.8704-0.7243-1.3056,2.4054,0.1707,6.1024,1.2619,7.8454-0.6944,0.1706,0.31893,0.3421,0.6379,0.5141,0.9568-1.1552-0.46187-2.8149-0.0779-4.0427-0.0896-1.617-0.0171-3.4442-0.3776-5.0389-0.0821-0.7776,0.144-2.4437-1.0422-1.2224-1.2683"/>
<path transform="translate(59.264427,429.49579)" d="M0,0c-0.4416-0.0085333-0.86827-0.0768-1.2715-0.2624-0.3637-0.16747-1.0581-0.7008-0.2645-0.832,0.3669-0.0608,0.76267-0.0053,1.1221-0.0981,0.48107-0.1238,1.0187-0.0096,1.4507,0.2261,0.192,0.10347,0.69973,0.5536,0.21333,0.67947-0.49707,0.12907-0.9888,0.10027-1.4901,0.18347-0.088533-0.27627-0.176-0.55467-0.26453-0.832-0.11307-0.0256-0.22613-0.0512-0.3392-0.0768,0.45333,0.0096,1.0645,0.16537,1.3685,0.53017,0.31147,0.37226-0.26453,0.48746-0.5248,0.48213"/>
<path transform="translate(61.006080,427.52277)" d="M0,0c1.8528-0.7552,3.7749-0.2176,5.6907-0.1248,0.4682,0.0224,1.0666,0.14507,1.3621,0.5536,0.2795,0.38827-0.2336,0.5909-0.5493,0.5749-1.5616-0.0757-3.359-0.63997-4.8576-0.0309-0.4555,0.1867-1.0496,0.0405-1.4571-0.20053-0.25173-0.14934-0.6496-0.5856-0.1888-0.77227"/>
<path transform="translate(58.695680,448.09621)" d="M0,0c0.21867,0,1.1755,0.4256,0.66667,0.4256-0.21867,0-1.1755-0.4256-0.66667-0.4256"/>
<path transform="translate(61.292053,447.82219)" d="M0,0c0.33387,0,1.1136,0.50773,0.4224,0.50773-0.33493,0-1.1147-0.50773-0.4224-0.50773"/>
<path transform="translate(63.200853,447.37387)" d="M0,0c0.31147,0,1.1211,0.4704,0.43093,0.4704-0.31146,0-1.12-0.4704-0.43093-0.4704"/>
<path transform="translate(60.328533,445.95360)" d="M0,0c0.2144,0,1.1733,0.4192,0.6688,0.4192-0.2144,0-1.1733-0.4192-0.6688-0.4192"/>
<path transform="translate(59.586347,446.45344)" d="M0,0c0.57813,0,0.8,0.72427,0.10027,0.72427-0.57814,0-0.80107-0.72427-0.10027-0.72427"/>
<path transform="translate(62.087360,445.66965)" d="M0,0c0.34133,0,1.1115,0.5184,0.4192,0.5184-0.3424,0-1.1125-0.5184-0.4192-0.5184"/>
<path transform="translate(57.911893,449.70037)" d="M0,0c0.59307,0,0.7872,0.7648,0.088533,0.7648-0.59306,0-0.7872-0.7648-0.088533-0.7648"/>
<path transform="translate(59.962880,434.86763)" d="M0,0c0.58773,0,0.79147,0.74987,0.0928,0.74987-0.58773,0-0.79147-0.74987-0.0928-0.74987"/>
<path transform="translate(62.665493,434.74475)" d="M0,0c0.57387,0,0.8032,0.71467,0.1024,0.71467-0.57387,0-0.8032-0.71467-0.1024-0.71467"/>
<path transform="translate(61.216533,436.61440)" d="M0,0c0.2208,0,1.1765,0.4288,0.6656,0.4288-0.2208,0-1.1755-0.4288-0.6656-0.4288"/>
<path transform="translate(61.265493,438.33632)" d="M0,0c0.576,0,0.80107,0.72107,0.10133,0.72107-0.57706,0-0.80213-0.72107-0.10133-0.72107"/>
<path transform="translate(60.959787,440.23680)" d="M0,0h0.045867c0.30826,0,1.1221,0.46507,0.43413,0.46507h-0.046933c-0.3072,0-1.1221-0.46507-0.43307-0.46507"/>
<path transform="translate(60.710293,443.54667)" d="M0,0c0.58773,0,0.79147,0.752,0.091733,0.752-0.58773,0-0.79146-0.752-0.091733-0.752"/>
<path transform="translate(61.548800,442.18325)" d="M0,0c0.44693,0,1.072,0.67947,0.37547,0.67947-0.448,0-1.0731-0.67947-0.37547-0.67947"/>
<path transform="translate(51.921707,427.33120)" d="M0,0c2.8043-0.0224,5.5893-0.28267,8.3915-0.045867,0.9621,0.08,1.7495,1.1446,0.3125,1.0229-2.6208-0.2208-5.2512,0.06613-7.8752,0.08743-0.70187,0.0054-2.2176-1.0528-0.8288-1.0645"/>
<path transform="translate(69.793600,427.24363)" d="M0,0c0.7296,0,2.2091,1.1061,0.8192,1.1061-0.7296,0-2.2101-1.1061-0.8192-1.1061"/>
<path transform="translate(53.931627,430.52075)" d="m0,0h0.0672c0.49173,0,1.0336,0.13227,1.4571,0.3904,0.32533,0.19947,0.2816,0.4288-0.1152,0.4288h-0.066167c-0.4928,0-1.0347-0.13227-1.4571-0.39147-0.3264-0.1984-0.28267-0.42773,0.11413-0.42773"/>
<path transform="translate(66.706133,427.65408)" d="m0,0c0.066133-0.61333,0.70827-0.56,1.1861-0.4896,0.35093,0.052267,1.0411,0.21653,1.1968,0.59947,0.1568,0.38187-0.70187,0.28587-0.84267,0.2656-0.036267-0.005333-0.0736-0.010667-0.11093-0.016l0.6624-0.0064c-0.0213,0.064-0.0309,0.13013-0.0309,0.19946-0.0512,0.47787-2.128,0.0608-2.0608-0.55253"/>
<path transform="translate(65.380053,432.39147)" d="m0,0c0.074667-0.10347,0.16213-0.16107,0.27093-0.22933,0.576-0.36053,2.4789,0.47573,1.6373,1.0027,0.00213,0.011733,0.0032,0.024533,0.00427,0.037333-0.416,0.5717-2.4085-0.1291-1.9125-0.8107"/>
<path transform="translate(67.217600,430.00917)" d="M0,0c0.18347-0.60693,0.44693-1.1829,0.66667-1.7781,0.19306-0.5206,2.2229,0.1109,2.0608,0.5525-0.2198,0.59413-0.4832,1.1701-0.6667,1.7781-0.1536,0.50557-2.2059-0.07466-2.0608-0.55253"/>
<path transform="translate(57.121707,447.32960)" d="M0,0c0.704,0,2.2176,1.0677,0.8288,1.0677-0.70293,0-2.2165-1.0677-0.8288-1.0677"/>
<path transform="translate(60.133760,448.08469)" d="M0,0c0.76267,0,2.1973,1.1573,0.80533,1.1573-0.76266,0-2.1973-1.1573-0.80533-1.1573"/>
<path transform="translate(63.610240,446.18123)" d="M0,0c0.81173,0,2.1792,1.2309,0.78507,1.2309-0.81067,0-2.1792-1.2309-0.78507-1.2309"/>
<path transform="translate(58.949333,444.62688)" d="M0,0c0.83947,0,2.1685,1.2725,0.7744,1.2725-0.83947,0-2.1685-1.2725-0.7744-1.2725"/>
<path transform="translate(62.173867,444.38571)" d="M0,0c0.6304,0,2.2389,0.95573,0.85867,0.95573-0.6304,0-2.239-0.95573-0.85867-0.95573"/>
<path transform="translate(61.013973,441.10304)" d="M0,0c0.3872,0,1.3408,0.58773,0.51093,0.58773-0.3872,0-1.3397-0.58773-0.51093-0.58773"/>
<path transform="translate(60.631680,437.03637)" d="M0,0c0.47467,0,1.312,0.72107,0.47573,0.72107-0.47466,0-1.312-0.72107-0.47573-0.72107"/>
<path transform="translate(61.198293,439.35819)" d="M0,0c0.2432,0,1.4027,0.47787,0.80853,0.47787-0.24213,0-1.4027-0.47787-0.80853-0.47787"/>
<path transform="translate(62.087360,443.41291)" d="M0,0c0.41813,0,1.3312,0.63467,0.49813,0.63467-0.41813,0-1.3312-0.63467-0.49813-0.63467"/>
<path transform="translate(61.135253,446.81184)" d="M0,0c0.25813,0,1.408,0.50347,0.80213,0.50347-0.25813,0-1.4091-0.50347-0.80213-0.50347"/>
<path transform="translate(62.810240,448.16181)" d="M0,0c0.69227,0,0.95893,0.86933,0.1184,0.86933-0.69227,0-0.95893-0.86933-0.1184-0.86933"/>
<path transform="translate(56.539947,448.79456)" d="M0,0c0.2784,0,1.4155,0.5376,0.79253,0.5376-0.2784,0-1.4144-0.5376-0.79253-0.5376"/>
<path transform="translate(60.805120,435.60096)" d="M0,0c0.27093,0,1.4123,0.5248,0.79573,0.5248-0.27093,0-1.4133-0.5248-0.79573-0.5248"/>
<path transform="translate(63.613440,433.90400)" d="M0,0c0.38613,0,1.3419,0.5856,0.512,0.5856-0.38613,0-1.3408-0.5856-0.512-0.5856"/>
<path transform="translate(58.274347,434.03733)" d="M0,0c0.68693,0,0.96533,0.85227,0.12373,0.85227-0.68586,0-0.96533-0.85227-0.12373-0.85227"/>
<path transform="translate(60.768107,433.95925)" d="M0,0c0.48853,0,1.3067,0.74133,0.46933,0.74133-0.48853,0-1.3067-0.74133-0.46933-0.74133"/>
<path transform="translate(60.360320,442.45504)" d="M0,0c0.45013,0,1.3205,0.68373,0.48533,0.68373-0.45013,0-1.3205-0.68373-0.48533-0.68373"/>
</g>
<g stroke="#000" stroke-width="0.75" stroke-linecap="round" transform="matrix(8.5269171,0,0,-8.5269171,-344.26643,3938.8302)">
<path transform="translate(51.076907,427.26229)" d="M0,0h20.542" stroke-linecap="butt"/>
<path transform="translate(59.476908,442.67694)" d="M0,0v-4.9067"/>
<path transform="translate(63.274923,442.67694)" d="M0,0v-4.9077"/>
<path transform="translate(63.264426,437.76971)" d="M0,0,8.1387-10.508"/>
<path transform="translate(59.477440,437.76971)" d="M0,0-8.2453-10.521"/>
<path transform="translate(50.937920,453.43328)" d="M0,0h20.54"/>
<path transform="translate(63.264426,442.64149)" d="M0,0,8.1813,10.791"/>
<path transform="translate(59.488428,442.67691)" d="M0,0-8.3947,10.67"/>
</g>
</svg>