<svg
xmlns="http://www.w3.org/2000/svg"
viewBox="20 20 321 321">
<g fill="#000" stroke="none">
<path d="m 74.387785,210.7195 c 0.837415,21.64462 13.851528,40.96498 33.599145,49.87747 12.53559,5.65682 27.21599,3.61455 37.73494,-5.26376 15.18456,-12.82612 23.8407,-31.7705 23.59289,-51.64629 -0.0171,-1.53811 -0.6836,-2.98222 -1.84573,-3.99054 -0.93141,-0.80323 -1.79446,-1.69192 -2.57206,-2.64042 -1.3843,-1.70046 -3.66583,-2.38407 -5.75937,-1.7261 -18.03005,5.64828 -37.48714,4.62288 -54.82504,-2.90532 -2.27299,-0.99122 -4.708328,-1.58083 -7.177848,-1.73464 -11.817806,-0.75197 -21.994962,8.22034 -22.746927,20.0296 M 97.895221,107.05094 C 107.97838,84.714172 129.8708,70.050864 154.35238,69.239084 c 15.76562,0.786145 27.89959,14.201875 27.11344,29.967495 -0.1709,3.435111 -0.96559,6.801861 -2.33279,9.954981 -6.74205,15.52636 -7.75891,32.93263 -2.8626,49.13405 0.74342,2.45243 3.11895,4.03326 5.66537,3.77691 2.73442,-0.27344 4.81941,-2.57206 4.81941,-5.32356 1.53811,-19.62799 10.86931,-37.82895 25.91714,-50.53544 12.6125,-10.647133 30.23239,-13.108107 45.28023,-6.314792 22.32822,10.074612 36.99153,31.967042 37.81185,56.457152 -0.79469,15.75708 -14.21042,27.8996 -29.96749,27.11345 -3.43511,-0.17944 -6.81041,-0.96559 -9.95499,-2.3328 -15.48363,-6.72495 -32.84718,-7.7589 -49.01441,-2.89677 -2.51225,0.69215 -4.16144,3.10185 -3.90509,5.69955 0.28198,2.73442 2.5806,4.81941 5.33211,4.81941 19.62798,1.53811 37.82894,10.8693 50.52689,25.91714 10.65568,12.61249 13.11665,30.23239 6.32334,45.28023 -10.08316,22.32822 -31.97559,36.99152 -56.45716,37.81185 -15.76562,-0.79469 -27.89959,-14.21042 -27.11345,-29.9675 0.17091,-3.43511 0.9656,-6.8104 2.3328,-9.96353 6.72496,-15.47508 7.75037,-32.84717 2.89678,-49.00587 -0.64943,-2.35843 -2.81987,-3.97345 -5.26376,-3.93072 -2.91386,0.0598 -5.2552,2.43534 -5.2552,5.35775 -1.53811,19.62798 -10.86931,37.82894 -25.91714,50.52689 -12.6125,10.65568 -30.2324,13.11665 -45.28023,6.32333 -22.336765,-10.08316 -36.991528,-31.97558 -37.811853,-56.45715 0.79469,-15.76562 14.21042,-27.89959 29.967495,-27.11345 3.435108,0.1709 6.810408,0.96559 9.954988,2.3328 15.48363,6.72496 32.84717,7.75036 49.01441,2.89677 2.35844,-0.65797 3.97345,-2.81986 3.93073,-5.26375 -0.0598,-2.92241 -2.43534,-5.25521 -5.35775,-5.26375 C 135.11747,176.7102 116.91651,167.379 104.21001,152.33116 93.56288,139.71867 91.101906,122.09877 97.895221,107.05094 m 11.775079,40.67444 c 12.82612,15.18456 31.7705,23.84069 51.64629,23.59289 1.52957,-0.0171 2.98223,-0.69215 3.982,-1.84573 0.81178,-0.93141 1.70046,-1.79446 2.64896,-2.57206 1.70047,-1.3843 2.38407,-3.66583 1.7261,-5.75937 -5.6141,-17.91897 -4.63996,-37.25642 2.7686,-54.50888 1.07668,-2.36698 1.70901,-4.90486 1.87137,-7.502556 0.75196,-11.809261 -8.22034,-21.994963 -20.0296,-22.738382 -21.65316,0.837415 -40.96498,13.851528 -49.87747,33.599138 -5.656823,12.53559 -3.61456,27.21599 5.26375,37.73495 m 85.86068,19.57671 c 0.93141,0.81178 1.79446,1.69192 2.57206,2.64897 1.3843,1.70046 3.66583,2.37552 5.75082,1.7261 17.91897,-5.62264 37.26497,-4.63996 54.51743,2.7686 2.36698,1.06813 4.90486,1.70046 7.49401,1.87136 11.8178,0.74342 21.99496,-8.22034 22.74692,-20.0296 -0.83741,-21.65316 -13.85152,-40.96497 -33.59914,-49.87746 -12.53559,-5.66537 -27.22453,-3.61456 -37.73495,5.26375 -15.18455,12.82612 -23.84069,31.7705 -23.59288,51.64629 0.0171,1.52956 0.69215,2.98222 1.84573,3.98199 m 6.15244,28.37812 c -1.52957,0.0256 -2.98223,0.69215 -3.982,1.85428 -0.81178,0.93141 -1.70046,1.79446 -2.64896,2.57206 -1.70047,1.38429 -2.38407,3.66582 -1.7261,5.75082 5.65682,18.03005 4.62287,37.49568 -2.90532,54.82505 -0.99123,2.28152 -1.58084,4.70832 -1.73465,7.18638 -0.75196,11.80926 8.22034,21.99497 20.0296,22.74693 21.65316,-0.84596 40.96498,-13.85153 49.87747,-33.59914 5.65682,-12.54414 3.61455,-27.22454 -5.26375,-37.73495 -12.82613,-15.1931 -31.7705,-23.84924 -51.64629,-23.60143 m -5.89609,-12.1767 c 0,-7.89563 -6.40024,-14.28732 -14.28733,-14.28732 -7.88708,0 -14.28732,6.39169 -14.28732,14.28732 0,7.88708 6.40024,14.28733 14.28732,14.28733 7.88709,0 14.28733,-6.40025 14.28733,-14.28733"/>
</g>
</svg>
