<svg xmlns="http://www.w3.org/2000/svg" viewBox="20 20 321 321"><g fill="#fff" fill-opacity="0.4" stroke="none">
<path d="m196.54,73.609-0.13757,221.6h-36.771l0.48624-221.6c5.8046-0.48278,12.12-1.3687,17.986-1.3687,5.8651,0,13.083,0.44384,18.436,1.3687"/><path d="m173.64,103.69h9.4332v3.7627h-9.4332z"/></g>
<g stroke="#fff" stroke-width="6" fill="none">
<path d="m168.25,102.02h20.303v12.056h-20.303z" stroke-width="1"/>
<path d="m173.64,103.69h9.4332v3.7627h-9.4332z" stroke-width="0.5"/>
<path d="m196.33,125.61h61.311m-159.41,0h61.311m36.787-3.6693h61.572m-159.67,0h61.572"/>
<path d="m153.74,78.623h2.3412v-8.6112h-2.3412zm-30.527,0h2.3412v-8.6112h-2.3412zm15.264,0h2.3412v-8.6112h-2.3412zm-30.528,0h2.3412v-8.6112h-2.3412z"/>
<path d="M257.78,78.594v216.92"/>
<path d="M98.432,295.31v-216.72"/>
<path d="m98.432,295.31h159.22"/>
<path d="M100.85,295.4h154.74v4.1944h-154.73z"/>
<path d="m166.73,69.915h85.656"/>
<path d="M257.78,78.594h-61.297"/>
<path d="m252.39,70.122v8.4719"/>
<path d="m233.28,70.177v8.4719"/>
<path d="m227.3,70.122v8.4719"/>
<path d="m207.4,70.122v8.4719"/>
<path d="M98.432,78.594h61.297"/>
<path d="m186.11,69.95v2.6276"/>
<path d="m166.73,72.689v-2.567"/>
<path d="m196.54,73.609-0.13757,221.6h-36.771l0.48624-221.6c5.8046-0.48278,12.12-1.3687,17.986-1.3687,5.8651,0,13.083,0.44384,18.436,1.3687z"/></g>
</svg>