<svg xmlns="http://www.w3.org/2000/svg" viewBox="20 20 321 321">
<g fill="#fff" stroke="none" fill-rule="evenodd">
<path d="m 181.65078,69.351363 c 63.2768,0 114.56745,51.290647 114.56745,114.567447 0,63.2768 -51.29065,114.56745 -114.56745,114.56745 -63.2768,0 -114.56745,-51.29065 -114.56745,-114.56745 0,-63.2768 51.29065,-114.567447 114.56745,-114.567447 m 45.09253,17.811454 c -28.58594,-13.318978 -61.59912,-13.318978 -90.17573,0 L 87.523163,234.27741 c 18.575737,34.71883 54.748547,56.38896 94.127617,56.38896 39.37907,0 75.55188,-21.67013 94.12762,-56.38896 L 226.74331,87.162817 m 10.01952,5.33132 c 44.9434,27.103983 63.52845,82.849823 43.83426,131.493453 L 236.76283,92.494137 M 82.71379,223.99691 C 63.010277,175.34396 81.586011,119.59812 126.53873,92.494137z"/>
</g>
</svg>
