<svg xmlns="http://www.w3.org/2000/svg" viewBox="20 20 321 321">
<g fill="#fff" stroke="none">
<path d="m 223.32061,120.56732 c -1.88753,4.63694 -4.94722,8.68781 -8.88604,11.77336 -5.95563,4.11119 -10.84252,9.57555 -14.29006,15.92764 -2.73218,4.49043 -3.93882,9.73069 -3.44755,14.95372 V 283.0069 c -0.92221,9.08428 -8.79123,15.83284 -17.90998,15.3588 -9.10151,-0.44818 -16.25516,-7.94658 -16.28102,-17.06533 V 172.73726 c 0,-10.85114 -5.15408,-21.06449 -13.87636,-27.51139 -5.06789,-3.74059 -9.11013,-8.68781 -11.78197,-14.40211 -7.55874,-16.20345 -2.69771,-35.492451 11.65269,-46.171214 l 15.64322,33.553204 c 12.02331,0.28443 23.47777,-5.05065 30.99341,-14.45382 L 179.47649,70.198724 c 17.41871,-4.111194 35.31145,4.559375 42.87019,20.771444 4.3439,9.316982 4.69728,20.004362 0.97393,29.597152 m -7.17089,-26.709835 c -4.82656,-10.351247 -14.97095,-17.186 -26.3737,-17.78932 l 13.2558,28.433605 c -9.43765,14.44521 -26.25303,22.29698 -43.39594,20.22846 l -13.2558,-28.433609 c -6.87785,9.118749 -8.15344,21.288579 -3.32688,31.639819 3.55959,7.61907 10.06683,13.47127 18.03065,16.18621 1.98234,0.67227 4.05948,0.97393 6.16248,0.89637 17.76346,-0.67228 34.48405,-8.47234 46.42978,-21.63333 1.40487,-1.56002 2.50809,-3.35274 3.26655,-5.3006 3.05107,-7.85178 2.75803,-16.59992 -0.79294,-24.227605 m -52.37679,58.039375 c 3.61992,6.3521 5.53331,13.52299 5.56778,20.8404 v 108.56311 c 0,5.66259 4.59385,10.26506 10.26506,10.26506 5.66259,0 10.24782,-4.60247 10.24782,-10.26506 V 162.99795 c 0,-5.99872 1.43935,-11.90264 4.18877,-17.23771 -9.54108,4.18014 -19.85785,6.28314 -30.26943,6.13662"/>
</g>
</svg>
