<svg xmlns="http://www.w3.org/2000/svg" viewBox="20 20 321 321">
<g stroke="#fff" stroke-width="7" fill="#fff" fill-opacity="0.7">
<path d="m 89.590827,203.42114 4.945336,-8.48355 3.53821,-7.62703 1.407127,-8.47335 v -8.46315 l -0.703563,-8.47335 -1.417324,-6.77053 -4.22138,-16.95689 -4.241773,-16.9365 -1.417323,-8.47335 -0.703563,-6.78072 0.703563,-8.463156 1.417323,-7.616838 2.814254,-8.473349 4.945336,-7.616838 h 13.41869 l -4.93514,7.616838 -2.83465,8.473349 -1.40713,7.616838 -0.70356,8.463156 0.70356,6.78072 1.40713,8.47335 4.24177,16.9365 4.24178,16.95689 1.39693,6.77053 0.72395,8.47335 v 8.46315 l -1.42752,8.47335 -3.51781,7.62703 -4.94534,8.48355z"/>
<path d="m 168.95277,203.42114 4.94534,-8.48355 3.53821,-7.62703 1.40712,-8.47335 v -8.46315 l -0.70356,-8.47335 -1.41732,-6.77053 -4.23158,-16.95689 -4.23158,-16.9365 -1.41732,-8.47335 -0.71376,-6.78072 0.71376,-8.463156 1.41732,-7.616838 2.81426,-8.473349 4.93514,-7.616838 h 13.41868 l -4.93514,7.616838 -2.82445,8.473349 -1.40712,7.616838 -0.71376,8.463156 0.71376,6.78072 1.40712,8.47335 4.25197,16.9365 4.23158,16.95689 1.39693,6.77053 0.73415,8.47335 v 8.46315 l -1.42752,8.47335 -3.51781,7.62703 -4.95554,8.48355z"/>
<path d="m 246.77712,203.42114 4.93514,-8.48355 3.53821,-7.62703 1.42752,-8.47335 v -8.46315 l -0.73415,-8.47335 -1.38674,-6.77053 -4.25197,-16.95689 -4.22138,-16.9365 -1.42752,-8.47335 -0.68317,-6.78072 0.68317,-8.463156 1.42752,-7.616838 2.82445,-8.473349 4.93514,-7.616838 h 13.41869 l -4.95553,7.616838 -2.81426,8.473349 -1.42752,7.616838 -0.69336,8.463156 0.69336,6.78072 1.42752,8.47335 4.23158,16.9365 4.24177,16.95689 1.42752,6.77053 0.68317,8.47335 v 8.46315 l -1.40712,8.47335 -3.52802,7.62703 -4.95553,8.48355z"/>
</g>
<g stroke="#fff" stroke-width="12" fill="none">
<path d="M 65.136445,234.89163 H 288.19661 v 56.79489 H 65.136445 Z"/>
</g>
</svg>