<svg xmlns="http://www.w3.org/2000/svg" viewBox="20 20 321 321">
<g fill="none" stroke="#fff" stroke-width="13">
<path d="m 57.771045,93.344642 V 278.04775"/>
<path d="m 103.56389,93.344642 V 278.04775"/>
<path d="m 149.36102,93.344642 V 278.04775"/>	   
<path d="m 195.15280,93.725429 V 278.42853"/>
<path d="m 240.94565,93.725429 V 278.42853"/>
<path d="m 62.534092,96.171665 H 99.16880"/>
<path d="m 108.32587,96.171665 h 36.63471"/>
<path d="m 154.11872,96.171665 h 36.63471"/>
<path d="m 199.91050,96.171665 h 36.63471"/>
<path d="m 62.534092,274.30084 H 99.16880"/>
<path d="m 108.32587,274.30084 h 36.63471"/>
<path d="m 154.11872,274.30084 h 36.63471"/>
<path d="m 199.73187,274.30084 h 36.63471"/>
<path stroke-width="23" d="M 286.81766,122.73049 V 269.26932"/>
<path stroke-width="27" d="m 293.3028,249.34753 c 3.58325,3.58325 5.79738,7.1665 4.95237,8.00081 l -9.90474,9.92613 c -0.84501,0.83431 -4.42825,-1.37982 -8.0115,-4.96307 -3.57256,-3.58325 -5.79738,-7.1558 -4.95237,-8.0008 l 9.91543,-9.91544 c 0.83431,-0.84501 4.41756,1.36912 8.00081,4.95237z"/>
</g>
</svg>
