<svg xmlns="http://www.w3.org/2000/svg" viewBox="20 20 321 321">
<g fill="#fff" fill-opacity="0.7">
<path d="m 165.84332,293.16554 125.25018,-125.15056 -47.00369,47.00369 29.54916,29.55912 c 0,0 24.78703,-33.12574 17.45453,-76.56281z"/>
<path d="m 72.129839,168.01598 125.250181,125.15056 -47.00369,-46.90407 -29.55912,29.54916 c 0,0 33.02612,24.78703 76.56281,17.35491z"/>
<path d="M 119.03589,214.92203 181.51154,152.44638 150.36836,121.3032 87.892709,183.77885Z"/>
<path d="m 212.94763,246.06123 31.14318,-31.14318 -31.14318,-31.13322 -31.14318,31.13322z"/>
<path d="M 244.08682,152.64464 273.73561,122.99585 242.40314,91.65342 212.75435,121.4118Z"/>
<path d="M 291.0925,199.45206 165.84232,74.301504 181.61316,89.972721 c 0,0 15.86051,-15.671217 15.77084,-15.671217 -7.44208,-1.484431 -25.39474,-1.384805 -31.54168,0z"/>
<path d="M 197.37902,74.302504 72.128838,199.45306 87.899681,183.78184 72.128838,168.011 c 0,0 1.095889,-12.89164 0,0 -1.085926,12.80198 -1.384805,25.39474 0,31.44206z"/>
</g>
<g fill="none" stroke="#fff" stroke-width="0.75">
<path d="m 0,0 c 4.33,-4.33 11.357,-4.33 15.687,0 4.341,4.34 4.341,11.357 0,15.697 -4.33,4.33 -11.357,4.33 -15.687,0 C -4.32,11.357 -4.32,4.34 0,0 Z" transform="matrix(9.9626298,0,0,-9.9626298,103.4663,261.92771)"/>
<path d="M 0,0 C 0,0 0.109,1.294 0,0 -0.109,-1.284 -0.139,-2.548 0,-3.155" transform="matrix(9.9626298,0,0,-9.9626298,72.129839,168.01598)"/>
<path d="M 0,0 C 0,0 3.315,-2.488 7.684,-1.742" transform="matrix(9.9626298,0,0,-9.9626298,120.8212,275.81064)"/>
<path d="M 0,0 12.572,-12.562" transform="matrix(9.9626298,0,0,-9.9626298,165.84334,74.302461)"/>
<path d="M 0,0 15.339,-15.349" transform="matrix(9.9626298,0,0,-9.9626298,120.82120,91.656413)"/>
<path d="M 0,0 12.572,-12.562" transform="matrix(9.9626298,0,0,-9.9626298,72.129865,168.01594)"/>
<path d="M 0,0 15.339,-15.349" transform="matrix(9.9626298,0,0,-9.9626298,89.583420,122.89419)"/>
<path d="M 0,0 15.339,15.349" transform="matrix(9.9626298,0,0,-9.9626298,89.58337,244.57381)"/>
<path d="M 0,0 15.339,15.349" transform="matrix(9.9626298,0,0,-9.9626298,120.8212,275.81064)"/>
</g>
<g fill="none" stroke="#fff" stroke-width="7">
<path d="M 197.37902,74.302504 72.128838,199.45306 87.899681,183.78184 72.128838,168.011"/>
<path d="m 165.84332,293.16554 125.25018,-125.15056 -47.00369,47.00369 29.54916,29.55912"/>
<path d="m 273.63897,244.57381 c 0,0 24.78702,-33.12574 17.45453,-76.55285"/>
<path d="M 72.129839,168.01598 197.38002,293.16654 150.37633,246.26247 120.81721,275.81163"/>
</g>
</svg>
