<svg xmlns="http://www.w3.org/2000/svg" viewBox="20 20 321 321">
<g fill="#fff" stroke="none">
<path d="m151.98 274.49h93.954v-14.093h9.3954v-183.21a9.3954 9.3954 0 0 0 -9.3954 -9.3954h-93.954a9.3954 9.3954 0 0 0 -9.3954 9.3954v9.3954h-4.6977a9.3954 9.3954 0 0 0 -8.6726 5.7818l-5.4204 13.009a178.51 178.51 0 0 1 -22.084 86.005l-20.243 36.819a37.581 37.581 0 0 0 -4.6493 18.106 28.186 28.186 0 0 0 42.279 24.41 28.186 28.186 0 0 0 14.093 -24.41v-115.09h9.3954v129.19h9.3954zm-28.186-110.44a187.91 187.91 0 0 1 -13.851 31.857l-20.243 36.819a28.186 28.186 0 0 0 -3.487 13.58 18.791 18.791 0 0 0 28.186 16.273 18.791 18.791 0 0 0 9.3954 -16.273v-82.256zm46.977-16.395h56.372a9.3954 9.3954 0 0 0 9.3954 -9.3954v-42.279a9.3954 9.3954 0 0 0 -9.3954 -9.3954h-56.372a9.3954 9.3954 0 0 0 -9.3954 9.3954v42.279a9.3954 9.3954 0 0 0 9.3954 9.3954z" fill-rule="evenodd"/>
</g>
</svg>